<svg xmlns="http://www.w3.org/2000/svg" xmlns:xlink="http://www.w3.org/1999/xlink" contentStyleType="text/css" data-diagram-type="SEQUENCE" height="1312px" preserveAspectRatio="none" style="width:1013px;height:1312px;background:#FFFFFF;" version="1.1" viewBox="0 0 1013 1312" width="1013px" zoomAndPan="magnify"><defs/><g><g><title>Player Client</title><rect fill="#FFFFFF" height="159.5527" style="stroke:#181818;stroke-width:1;" width="10" x="64.147" y="575.7676"/></g><g><title>Game Supplier</title><rect fill="#FFFFFF" height="263.7949" style="stroke:#181818;stroke-width:1;" width="10" x="202.4707" y="839.252"/></g><g><title>B2B Partner Backend</title><rect fill="#FFFFFF" height="58.6211" style="stroke:#181818;stroke-width:1;" width="10" x="345.2349" y="111.1094"/></g><g><title>B2B Partner Backend</title><rect fill="#FFFFFF" height="146.5527" style="stroke:#181818;stroke-width:1;" width="10" x="345.2349" y="332.2832"/></g><g><title>Casino Service</title><rect fill="#FFFFFF" height="29.3105" style="stroke:#181818;stroke-width:1;" width="10" x="597.3867" y="140.4199"/></g><g><title>Casino Service</title><rect fill="#FFFFFF" height="29.3105" style="stroke:#181818;stroke-width:1;" width="10" x="597.3867" y="223.3516"/></g><g><title>Casino Service</title><rect fill="#FFFFFF" height="29.3105" style="stroke:#181818;stroke-width:1;" width="10" x="597.3867" y="361.5938"/></g><g><title>Casino Service</title><rect fill="#FFFFFF" height="29.3105" style="stroke:#181818;stroke-width:1;" width="10" x="597.3867" y="420.2148"/></g><g><title>Casino Service</title><rect fill="#FFFFFF" height="87.9316" style="stroke:#181818;stroke-width:1;" width="10" x="597.3867" y="575.7676"/></g><g><title>Casino Service</title><rect fill="#FFFFFF" height="87.9316" style="stroke:#181818;stroke-width:1;" width="10" x="597.3867" y="868.5625"/></g><g><title>Casino Service</title><rect fill="#FFFFFF" height="87.9316" style="stroke:#181818;stroke-width:1;" width="10" x="597.3867" y="985.8047"/></g><g><title>Casino Service</title><rect fill="#FFFFFF" height="87.9316" style="stroke:#181818;stroke-width:1;" width="10" x="597.3867" y="1163.668"/></g><g><title>Partner Wallet Service</title><rect fill="#FFFFFF" height="29.3105" style="stroke:#181818;stroke-width:1;" width="10" x="901.4624" y="605.0781"/></g><g><title>Partner Wallet Service</title><rect fill="#FFFFFF" height="29.3105" style="stroke:#181818;stroke-width:1;" width="10" x="901.4624" y="897.873"/></g><g><title>Partner Wallet Service</title><rect fill="#FFFFFF" height="29.3105" style="stroke:#181818;stroke-width:1;" width="10" x="901.4624" y="1015.1152"/></g><g><title>Partner Wallet Service</title><rect fill="#FFFFFF" height="29.3105" style="stroke:#181818;stroke-width:1;" width="10" x="901.4624" y="1192.9785"/></g><rect fill="none" height="75.9316" style="stroke:#000000;stroke-width:1.5;" width="404.4307" x="263.7817" y="184.7305"/><rect fill="none" height="206.1738" style="stroke:#000000;stroke-width:1.5;" width="986.3027" x="10" y="537.1465"/><rect fill="none" height="310.416" style="stroke:#000000;stroke-width:1.5;" width="986.3027" x="10" y="800.6309"/><rect fill="none" height="134.5527" style="stroke:#000000;stroke-width:1.5;" width="986.3027" x="10" y="1125.0469"/><g><title>Player Client</title><rect fill="#000000" fill-opacity="0.00000" height="1240.1113" width="8" x="65.147" y="36.4883"/><line style="stroke:#181818;stroke-width:0.5;stroke-dasharray:5,5;" x1="69" x2="69" y1="36.4883" y2="1276.5996"/></g><g><title>Game Supplier</title><rect fill="#000000" fill-opacity="0.00000" height="1240.1113" width="8" x="203.4707" y="36.4883"/><line style="stroke:#181818;stroke-width:0.5;stroke-dasharray:5,5;" x1="207.1597" x2="207.1597" y1="36.4883" y2="1276.5996"/></g><g><title>B2B Partner Backend</title><rect fill="#000000" fill-opacity="0.00000" height="1240.1113" width="8" x="346.2349" y="36.4883"/><line style="stroke:#181818;stroke-width:0.5;stroke-dasharray:5,5;" x1="349.7817" x2="349.7817" y1="36.4883" y2="1276.5996"/></g><g><title>Casino Service</title><rect fill="#000000" fill-opacity="0.00000" height="1240.1113" width="8" x="598.3867" y="36.4883"/><line style="stroke:#181818;stroke-width:0.5;stroke-dasharray:5,5;" x1="601.561" x2="601.561" y1="36.4883" y2="1276.5996"/></g><g><title>Partner Wallet Service</title><rect fill="#000000" fill-opacity="0.00000" height="1240.1113" width="8" x="902.4624" y="36.4883"/><line style="stroke:#181818;stroke-width:0.5;stroke-dasharray:5,5;" x1="905.6221" x2="905.6221" y1="36.4883" y2="1276.5996"/></g><g class="participant participant-head" data-participant="PC"><rect fill="#E2E2F0" height="30.4883" rx="2.5" ry="2.5" style="stroke:#181818;stroke-width:0.5;" width="98.2939" x="20" y="5"/><text fill="#000000" font-family="sans-serif" font-size="14" lengthAdjust="spacing" textLength="84.2939" x="27" y="25.5352">Player Client</text></g><g class="participant participant-tail" data-participant="PC"><rect fill="#E2E2F0" height="30.4883" rx="2.5" ry="2.5" style="stroke:#181818;stroke-width:0.5;" width="98.2939" x="20" y="1275.5996"/><text fill="#000000" font-family="sans-serif" font-size="14" lengthAdjust="spacing" textLength="84.2939" x="27" y="1296.1348">Player Client</text></g><g class="participant participant-head" data-participant="GAME"><rect fill="#E2E2F0" height="30.4883" rx="2.5" ry="2.5" style="stroke:#181818;stroke-width:0.5;" width="112.6221" x="151.1597" y="5"/><text fill="#000000" font-family="sans-serif" font-size="14" lengthAdjust="spacing" textLength="98.6221" x="158.1597" y="25.5352">Game Supplier</text></g><g class="participant participant-tail" data-participant="GAME"><rect fill="#E2E2F0" height="30.4883" rx="2.5" ry="2.5" style="stroke:#181818;stroke-width:0.5;" width="112.6221" x="151.1597" y="1275.5996"/><text fill="#000000" font-family="sans-serif" font-size="14" lengthAdjust="spacing" textLength="98.6221" x="158.1597" y="1296.1348">Game Supplier</text></g><g class="participant participant-head" data-participant="PB"><rect fill="#E2E2F0" height="30.4883" rx="2.5" ry="2.5" style="stroke:#181818;stroke-width:0.5;" width="152.9063" x="273.7817" y="5"/><text fill="#000000" font-family="sans-serif" font-size="14" lengthAdjust="spacing" textLength="138.9063" x="280.7817" y="25.5352">B2B Partner Backend</text></g><g class="participant participant-tail" data-participant="PB"><rect fill="#E2E2F0" height="30.4883" rx="2.5" ry="2.5" style="stroke:#181818;stroke-width:0.5;" width="152.9063" x="273.7817" y="1275.5996"/><text fill="#000000" font-family="sans-serif" font-size="14" lengthAdjust="spacing" textLength="138.9063" x="280.7817" y="1296.1348">B2B Partner Backend</text></g><g class="participant participant-head" data-participant="CS"><rect fill="#E2E2F0" height="30.4883" rx="2.5" ry="2.5" style="stroke:#181818;stroke-width:0.5;" width="111.6514" x="546.561" y="5"/><text fill="#000000" font-family="sans-serif" font-size="14" lengthAdjust="spacing" textLength="97.6514" x="553.561" y="25.5352">Casino Service</text></g><g class="participant participant-tail" data-participant="CS"><rect fill="#E2E2F0" height="30.4883" rx="2.5" ry="2.5" style="stroke:#181818;stroke-width:0.5;" width="111.6514" x="546.561" y="1275.5996"/><text fill="#000000" font-family="sans-serif" font-size="14" lengthAdjust="spacing" textLength="97.6514" x="553.561" y="1296.1348">Casino Service</text></g><g class="participant participant-head" data-participant="WS"><rect fill="#E2E2F0" height="30.4883" rx="2.5" ry="2.5" style="stroke:#181818;stroke-width:0.5;" width="159.6807" x="826.6221" y="5"/><text fill="#000000" font-family="sans-serif" font-size="14" lengthAdjust="spacing" textLength="145.6807" x="833.6221" y="25.5352">Partner Wallet Service</text></g><g class="participant participant-tail" data-participant="WS"><rect fill="#E2E2F0" height="30.4883" rx="2.5" ry="2.5" style="stroke:#181818;stroke-width:0.5;" width="159.6807" x="826.6221" y="1275.5996"/><text fill="#000000" font-family="sans-serif" font-size="14" lengthAdjust="spacing" textLength="145.6807" x="833.6221" y="1296.1348">Partner Wallet Service</text></g><g><title>Player Client</title><rect fill="#FFFFFF" height="159.5527" style="stroke:#181818;stroke-width:1;" width="10" x="64.147" y="575.7676"/></g><g><title>Game Supplier</title><rect fill="#FFFFFF" height="263.7949" style="stroke:#181818;stroke-width:1;" width="10" x="202.4707" y="839.252"/></g><g><title>B2B Partner Backend</title><rect fill="#FFFFFF" height="58.6211" style="stroke:#181818;stroke-width:1;" width="10" x="345.2349" y="111.1094"/></g><g><title>B2B Partner Backend</title><rect fill="#FFFFFF" height="146.5527" style="stroke:#181818;stroke-width:1;" width="10" x="345.2349" y="332.2832"/></g><g><title>Casino Service</title><rect fill="#FFFFFF" height="29.3105" style="stroke:#181818;stroke-width:1;" width="10" x="597.3867" y="140.4199"/></g><g><title>Casino Service</title><rect fill="#FFFFFF" height="29.3105" style="stroke:#181818;stroke-width:1;" width="10" x="597.3867" y="223.3516"/></g><g><title>Casino Service</title><rect fill="#FFFFFF" height="29.3105" style="stroke:#181818;stroke-width:1;" width="10" x="597.3867" y="361.5938"/></g><g><title>Casino Service</title><rect fill="#FFFFFF" height="29.3105" style="stroke:#181818;stroke-width:1;" width="10" x="597.3867" y="420.2148"/></g><g><title>Casino Service</title><rect fill="#FFFFFF" height="87.9316" style="stroke:#181818;stroke-width:1;" width="10" x="597.3867" y="575.7676"/></g><g><title>Casino Service</title><rect fill="#FFFFFF" height="87.9316" style="stroke:#181818;stroke-width:1;" width="10" x="597.3867" y="868.5625"/></g><g><title>Casino Service</title><rect fill="#FFFFFF" height="87.9316" style="stroke:#181818;stroke-width:1;" width="10" x="597.3867" y="985.8047"/></g><g><title>Casino Service</title><rect fill="#FFFFFF" height="87.9316" style="stroke:#181818;stroke-width:1;" width="10" x="597.3867" y="1163.668"/></g><g><title>Partner Wallet Service</title><rect fill="#FFFFFF" height="29.3105" style="stroke:#181818;stroke-width:1;" width="10" x="901.4624" y="605.0781"/></g><g><title>Partner Wallet Service</title><rect fill="#FFFFFF" height="29.3105" style="stroke:#181818;stroke-width:1;" width="10" x="901.4624" y="897.873"/></g><g><title>Partner Wallet Service</title><rect fill="#FFFFFF" height="29.3105" style="stroke:#181818;stroke-width:1;" width="10" x="901.4624" y="1015.1152"/></g><g><title>Partner Wallet Service</title><rect fill="#FFFFFF" height="29.3105" style="stroke:#181818;stroke-width:1;" width="10" x="901.4624" y="1192.9785"/></g><rect fill="#EEEEEE" height="3" style="stroke:#EEEEEE;stroke-width:1;" width="1006.3027" x="0" y="67.1436"/><line style="stroke:#000000;stroke-width:1;" x1="0" x2="1006.3027" y1="67.1436" y2="67.1436"/><line style="stroke:#000000;stroke-width:1;" x1="0" x2="1006.3027" y1="70.1436" y2="70.1436"/><rect fill="#EEEEEE" height="23.3105" style="stroke:#000000;stroke-width:2;" width="100.9819" x="452.6604" y="56.4883"/><text fill="#000000" font-family="sans-serif" font-size="13" font-weight="bold" lengthAdjust="spacing" textLength="82.6973" x="458.6604" y="73.0566">Player Setup</text><g class="message" data-participant-1="PC" data-participant-2="PB"><polygon fill="#181818" points="333.2349,107.1094,343.2349,111.1094,333.2349,115.1094,337.2349,111.1094" style="stroke:#181818;stroke-width:1;"/><line style="stroke:#181818;stroke-width:1;" x1="69.147" x2="339.2349" y1="111.1094" y2="111.1094"/><text fill="#000000" font-family="sans-serif" font-size="13" lengthAdjust="spacing" textLength="75.9878" x="76.147" y="106.3672">Registration</text></g><g class="message" data-participant-1="PB" data-participant-2="CS"><polygon fill="#181818" points="585.3867,136.4199,595.3867,140.4199,585.3867,144.4199,589.3867,140.4199" style="stroke:#181818;stroke-width:1;"/><line style="stroke:#181818;stroke-width:1;" x1="355.2349" x2="591.3867" y1="140.4199" y2="140.4199"/><text fill="#000000" font-family="sans-serif" font-size="13" lengthAdjust="spacing" textLength="223.1519" x="362.2349" y="135.6777">POST /players (create shadow user)</text></g><g class="message" data-participant-1="CS" data-participant-2="PB"><polygon fill="#181818" points="361.2349,165.7305,351.2349,169.7305,361.2349,173.7305,357.2349,169.7305" style="stroke:#181818;stroke-width:1;"/><line style="stroke:#181818;stroke-width:1;stroke-dasharray:2,2;" x1="355.2349" x2="601.3867" y1="169.7305" y2="169.7305"/><text fill="#000000" font-family="sans-serif" font-size="13" lengthAdjust="spacing" textLength="113.5977" x="367.2349" y="164.9883">entain_account_id</text></g><path d="M263.7817,184.7305 L330.9668,184.7305 L330.9668,192.041 L320.9668,202.041 L263.7817,202.041 L263.7817,184.7305" fill="#EEEEEE" style="stroke:#000000;stroke-width:1.5;"/><rect fill="none" height="75.9316" style="stroke:#000000;stroke-width:1.5;" width="404.4307" x="263.7817" y="184.7305"/><text fill="#000000" font-family="sans-serif" font-size="13" font-weight="bold" lengthAdjust="spacing" textLength="22.1851" x="278.7817" y="198.2988">opt</text><text fill="#000000" font-family="sans-serif" font-size="11" font-weight="bold" lengthAdjust="spacing" textLength="110.8379" x="345.9668" y="197.3652">[Bonus Application]</text><g class="message" data-participant-1="PB" data-participant-2="CS"><polygon fill="#181818" points="585.3867,219.3516,595.3867,223.3516,585.3867,227.3516,589.3867,223.3516" style="stroke:#181818;stroke-width:1;"/><line style="stroke:#181818;stroke-width:1;" x1="350.2349" x2="591.3867" y1="223.3516" y2="223.3516"/><text fill="#000000" font-family="sans-serif" font-size="13" lengthAdjust="spacing" textLength="206.4702" x="357.2349" y="218.6094">POST /players/{player_id}/bonus</text></g><g class="message" data-participant-1="CS" data-participant-2="PB"><polygon fill="#181818" points="361.2349,248.6621,351.2349,252.6621,361.2349,256.6621,357.2349,252.6621" style="stroke:#181818;stroke-width:1;"/><line style="stroke:#181818;stroke-width:1;stroke-dasharray:2,2;" x1="355.2349" x2="601.3867" y1="252.6621" y2="252.6621"/><text fill="#000000" font-family="sans-serif" font-size="13" lengthAdjust="spacing" textLength="89.5273" x="367.2349" y="247.9199">bonus applied</text></g><rect fill="#EEEEEE" height="3" style="stroke:#EEEEEE;stroke-width:1;" width="1006.3027" x="0" y="288.3174"/><line style="stroke:#000000;stroke-width:1;" x1="0" x2="1006.3027" y1="288.3174" y2="288.3174"/><line style="stroke:#000000;stroke-width:1;" x1="0" x2="1006.3027" y1="291.3174" y2="291.3174"/><rect fill="#EEEEEE" height="23.3105" style="stroke:#000000;stroke-width:2;" width="126.0552" x="440.1238" y="277.6621"/><text fill="#000000" font-family="sans-serif" font-size="13" font-weight="bold" lengthAdjust="spacing" textLength="107.7705" x="446.1238" y="294.2305">Game Discovery</text><g class="message" data-participant-1="PC" data-participant-2="PB"><polygon fill="#181818" points="333.2349,328.2832,343.2349,332.2832,333.2349,336.2832,337.2349,332.2832" style="stroke:#181818;stroke-width:1;"/><line style="stroke:#181818;stroke-width:1;" x1="69.147" x2="339.2349" y1="332.2832" y2="332.2832"/><text fill="#000000" font-family="sans-serif" font-size="13" lengthAdjust="spacing" textLength="117.2856" x="76.147" y="327.541">(get game catalog)</text></g><g class="message" data-participant-1="PB" data-participant-2="CS"><polygon fill="#181818" points="585.3867,357.5938,595.3867,361.5938,585.3867,365.5938,589.3867,361.5938" style="stroke:#181818;stroke-width:1;"/><line style="stroke:#181818;stroke-width:1;" x1="355.2349" x2="591.3867" y1="361.5938" y2="361.5938"/><text fill="#000000" font-family="sans-serif" font-size="13" lengthAdjust="spacing" textLength="182.1777" x="362.2349" y="356.8516">GET /lobby (elided if cached)</text></g><g class="message" data-participant-1="CS" data-participant-2="PB"><polygon fill="#181818" points="366.2349,386.9043,356.2349,390.9043,366.2349,394.9043,362.2349,390.9043" style="stroke:#181818;stroke-width:1;"/><line style="stroke:#181818;stroke-width:1;stroke-dasharray:2,2;" x1="360.2349" x2="601.3867" y1="390.9043" y2="390.9043"/><text fill="#000000" font-family="sans-serif" font-size="13" lengthAdjust="spacing" textLength="142.6826" x="372.2349" y="386.1621">lobby feed with games</text></g><g class="message" data-participant-1="PB" data-participant-2="CS"><polygon fill="#181818" points="585.3867,416.2148,595.3867,420.2148,585.3867,424.2148,589.3867,420.2148" style="stroke:#181818;stroke-width:1;"/><line style="stroke:#181818;stroke-width:1;" x1="355.2349" x2="591.3867" y1="420.2148" y2="420.2148"/><text fill="#000000" font-family="sans-serif" font-size="13" lengthAdjust="spacing" textLength="200.3257" x="362.2349" y="415.4727">GET /jackpots (elided if cached)</text></g><g class="message" data-participant-1="CS" data-participant-2="PB"><polygon fill="#181818" points="366.2349,445.5254,356.2349,449.5254,366.2349,453.5254,362.2349,449.5254" style="stroke:#181818;stroke-width:1;"/><line style="stroke:#181818;stroke-width:1;stroke-dasharray:2,2;" x1="360.2349" x2="601.3867" y1="449.5254" y2="449.5254"/><text fill="#000000" font-family="sans-serif" font-size="13" lengthAdjust="spacing" textLength="77.9365" x="372.2349" y="444.7832">jackpot data</text></g><g class="message" data-participant-1="PB" data-participant-2="PC"><polygon fill="#181818" points="80.147,474.8359,70.147,478.8359,80.147,482.8359,76.147,478.8359" style="stroke:#181818;stroke-width:1;"/><line style="stroke:#181818;stroke-width:1;stroke-dasharray:2,2;" x1="74.147" x2="349.2349" y1="478.8359" y2="478.8359"/><text fill="#000000" font-family="sans-serif" font-size="13" lengthAdjust="spacing" textLength="83.2876" x="86.147" y="474.0938">Render lobby</text></g><rect fill="#EEEEEE" height="3" style="stroke:#EEEEEE;stroke-width:1;" width="1006.3027" x="0" y="507.4912"/><line style="stroke:#000000;stroke-width:1;" x1="0" x2="1006.3027" y1="507.4912" y2="507.4912"/><line style="stroke:#000000;stroke-width:1;" x1="0" x2="1006.3027" y1="510.4912" y2="510.4912"/><rect fill="#EEEEEE" height="23.3105" style="stroke:#000000;stroke-width:2;" width="107.8628" x="449.22" y="496.8359"/><text fill="#000000" font-family="sans-serif" font-size="13" font-weight="bold" lengthAdjust="spacing" textLength="89.5781" x="455.22" y="513.4043">Game Launch</text><path d="M10,537.1465 L77.1851,537.1465 L77.1851,544.457 L67.1851,554.457 L10,554.457 L10,537.1465" fill="#EEEEEE" style="stroke:#000000;stroke-width:1.5;"/><rect fill="none" height="206.1738" style="stroke:#000000;stroke-width:1.5;" width="986.3027" x="10" y="537.1465"/><text fill="#000000" font-family="sans-serif" font-size="13" font-weight="bold" lengthAdjust="spacing" textLength="22.1851" x="25" y="550.7148">opt</text><text fill="#000000" font-family="sans-serif" font-size="11" font-weight="bold" lengthAdjust="spacing" textLength="70.2271" x="92.1851" y="549.7813">[Start Game]</text><g class="message" data-participant-1="PC" data-participant-2="CS"><polygon fill="#181818" points="585.3867,571.7676,595.3867,575.7676,585.3867,579.7676,589.3867,575.7676" style="stroke:#181818;stroke-width:1;"/><line style="stroke:#181818;stroke-width:1;" x1="74.147" x2="591.3867" y1="575.7676" y2="575.7676"/><text fill="#000000" font-family="sans-serif" font-size="13" lengthAdjust="spacing" textLength="333.1885" x="81.147" y="571.0254">POST /game/{game_id}/get_launch_url (select game)</text></g><g class="message" data-participant-1="CS" data-participant-2="WS"><polygon fill="#181818" points="889.4624,601.0781,899.4624,605.0781,889.4624,609.0781,893.4624,605.0781" style="stroke:#181818;stroke-width:1;"/><line style="stroke:#181818;stroke-width:1;" x1="607.3867" x2="895.4624" y1="605.0781" y2="605.0781"/><text fill="#000000" font-family="sans-serif" font-size="13" lengthAdjust="spacing" textLength="238.9639" x="614.3867" y="600.3359">POST /player/{player_id}/authenticate</text></g><g class="message" data-participant-1="WS" data-participant-2="CS"><polygon fill="#181818" points="618.3867,630.3887,608.3867,634.3887,618.3867,638.3887,614.3867,634.3887" style="stroke:#181818;stroke-width:1;"/><line style="stroke:#181818;stroke-width:1;stroke-dasharray:2,2;" x1="612.3867" x2="905.4624" y1="634.3887" y2="634.3887"/><text fill="#000000" font-family="sans-serif" font-size="13" lengthAdjust="spacing" textLength="134.0054" x="624.3867" y="629.6465">player info + balance</text></g><g class="message" data-participant-1="CS" data-participant-2="PC"><polygon fill="#181818" points="85.147,659.6992,75.147,663.6992,85.147,667.6992,81.147,663.6992" style="stroke:#181818;stroke-width:1;"/><line style="stroke:#181818;stroke-width:1;stroke-dasharray:2,2;" x1="79.147" x2="601.3867" y1="663.6992" y2="663.6992"/><text fill="#000000" font-family="sans-serif" font-size="13" lengthAdjust="spacing" textLength="106.6089" x="91.147" y="658.957">game_launch_url</text></g><g class="message" data-participant-1="PC" data-participant-2="PC"><line style="stroke:#181818;stroke-width:1;" x1="74.147" x2="116.147" y1="693.0098" y2="693.0098"/><line style="stroke:#181818;stroke-width:1;" x1="116.147" x2="116.147" y1="693.0098" y2="706.0098"/><line style="stroke:#181818;stroke-width:1;" x1="75.147" x2="116.147" y1="706.0098" y2="706.0098"/><polygon fill="#181818" points="85.147,702.0098,75.147,706.0098,85.147,710.0098,81.147,706.0098" style="stroke:#181818;stroke-width:1;"/><text fill="#000000" font-family="sans-serif" font-size="13" lengthAdjust="spacing" textLength="104.3237" x="81.147" y="688.2676">redirect to game</text></g><g class="message" data-participant-1="PC" data-participant-2="GAME"><polygon fill="#181818" points="195.4707,731.3203,205.4707,735.3203,195.4707,739.3203,199.4707,735.3203" style="stroke:#181818;stroke-width:1;"/><line style="stroke:#181818;stroke-width:1;" x1="69.147" x2="201.4707" y1="735.3203" y2="735.3203"/><text fill="#000000" font-family="sans-serif" font-size="13" lengthAdjust="spacing" textLength="28.8501" x="76.147" y="730.5781">start</text></g><rect fill="#EEEEEE" height="3" style="stroke:#EEEEEE;stroke-width:1;" width="1006.3027" x="0" y="770.9756"/><line style="stroke:#000000;stroke-width:1;" x1="0" x2="1006.3027" y1="770.9756" y2="770.9756"/><line style="stroke:#000000;stroke-width:1;" x1="0" x2="1006.3027" y1="773.9756" y2="773.9756"/><rect fill="#EEEEEE" height="23.3105" style="stroke:#000000;stroke-width:2;" width="120.9707" x="442.666" y="760.3203"/><text fill="#000000" font-family="sans-serif" font-size="13" font-weight="bold" lengthAdjust="spacing" textLength="102.686" x="448.666" y="776.8887">Gameplay Loop</text><path d="M10,800.6309 L84.4468,800.6309 L84.4468,807.9414 L74.4468,817.9414 L10,817.9414 L10,800.6309" fill="#EEEEEE" style="stroke:#000000;stroke-width:1.5;"/><rect fill="none" height="310.416" style="stroke:#000000;stroke-width:1.5;" width="986.3027" x="10" y="800.6309"/><text fill="#000000" font-family="sans-serif" font-size="13" font-weight="bold" lengthAdjust="spacing" textLength="29.4468" x="25" y="814.1992">loop</text><text fill="#000000" font-family="sans-serif" font-size="11" font-weight="bold" lengthAdjust="spacing" textLength="86.1309" x="99.4468" y="813.2656">[Game Rounds]</text><g class="message" data-participant-1="PC" data-participant-2="GAME"><polygon fill="#181818" points="190.4707,835.252,200.4707,839.252,190.4707,843.252,194.4707,839.252" style="stroke:#181818;stroke-width:1;"/><line style="stroke:#181818;stroke-width:1;" x1="69.147" x2="196.4707" y1="839.252" y2="839.252"/><text fill="#000000" font-family="sans-serif" font-size="13" lengthAdjust="spacing" textLength="28.7422" x="76.147" y="834.5098">(bet)</text></g><g class="message" data-participant-1="GAME" data-participant-2="CS"><polygon fill="#181818" points="585.3867,864.5625,595.3867,868.5625,585.3867,872.5625,589.3867,868.5625" style="stroke:#181818;stroke-width:1;"/><line style="stroke:#181818;stroke-width:1;" x1="212.4707" x2="591.3867" y1="868.5625" y2="868.5625"/><text fill="#000000" font-family="sans-serif" font-size="13" lengthAdjust="spacing" textLength="28.7422" x="219.4707" y="863.8203">(bet)</text></g><g class="message" data-participant-1="CS" data-participant-2="WS"><polygon fill="#181818" points="889.4624,893.873,899.4624,897.873,889.4624,901.873,893.4624,897.873" style="stroke:#181818;stroke-width:1;"/><line style="stroke:#181818;stroke-width:1;" x1="607.3867" x2="895.4624" y1="897.873" y2="897.873"/><text fill="#000000" font-family="sans-serif" font-size="13" lengthAdjust="spacing" textLength="234.7236" x="614.3867" y="893.1309">POST /game_round/{game_round_id}</text></g><g class="message" data-participant-1="WS" data-participant-2="CS"><polygon fill="#181818" points="618.3867,923.1836,608.3867,927.1836,618.3867,931.1836,614.3867,927.1836" style="stroke:#181818;stroke-width:1;"/><line style="stroke:#181818;stroke-width:1;stroke-dasharray:2,2;" x1="612.3867" x2="905.4624" y1="927.1836" y2="927.1836"/><text fill="#000000" font-family="sans-serif" font-size="13" lengthAdjust="spacing" textLength="104.2793" x="624.3867" y="922.4414">updated balance</text></g><g class="message" data-participant-1="CS" data-participant-2="GAME"><polygon fill="#181818" points="223.4707,952.4941,213.4707,956.4941,223.4707,960.4941,219.4707,956.4941" style="stroke:#181818;stroke-width:1;"/><line style="stroke:#181818;stroke-width:1;stroke-dasharray:2,2;" x1="217.4707" x2="601.3867" y1="956.4941" y2="956.4941"/><text fill="#000000" font-family="sans-serif" font-size="13" lengthAdjust="spacing" textLength="104.2793" x="229.4707" y="951.752">updated balance</text></g><g class="message" data-participant-1="GAME" data-participant-2="CS"><polygon fill="#181818" points="585.3867,981.8047,595.3867,985.8047,585.3867,989.8047,589.3867,985.8047" style="stroke:#181818;stroke-width:1;"/><line style="stroke:#181818;stroke-width:1;" x1="212.4707" x2="591.3867" y1="985.8047" y2="985.8047"/><text fill="#000000" font-family="sans-serif" font-size="13" lengthAdjust="spacing" textLength="35.877" x="219.4707" y="981.0625">result</text></g><g class="message" data-participant-1="CS" data-participant-2="WS"><polygon fill="#181818" points="889.4624,1011.1152,899.4624,1015.1152,889.4624,1019.1152,893.4624,1015.1152" style="stroke:#181818;stroke-width:1;"/><line style="stroke:#181818;stroke-width:1;" x1="607.3867" x2="895.4624" y1="1015.1152" y2="1015.1152"/><text fill="#000000" font-family="sans-serif" font-size="13" lengthAdjust="spacing" textLength="275.0757" x="614.3867" y="1010.373">PUT /game_round/{game_round_id} (result)</text></g><g class="message" data-participant-1="WS" data-participant-2="CS"><polygon fill="#181818" points="618.3867,1040.4258,608.3867,1044.4258,618.3867,1048.4258,614.3867,1044.4258" style="stroke:#181818;stroke-width:1;"/><line style="stroke:#181818;stroke-width:1;stroke-dasharray:2,2;" x1="612.3867" x2="905.4624" y1="1044.4258" y2="1044.4258"/><text fill="#000000" font-family="sans-serif" font-size="13" lengthAdjust="spacing" textLength="104.2793" x="624.3867" y="1039.6836">updated balance</text></g><g class="message" data-participant-1="CS" data-participant-2="GAME"><polygon fill="#181818" points="223.4707,1069.7363,213.4707,1073.7363,223.4707,1077.7363,219.4707,1073.7363" style="stroke:#181818;stroke-width:1;"/><line style="stroke:#181818;stroke-width:1;stroke-dasharray:2,2;" x1="217.4707" x2="601.3867" y1="1073.7363" y2="1073.7363"/><text fill="#000000" font-family="sans-serif" font-size="13" lengthAdjust="spacing" textLength="104.2793" x="229.4707" y="1068.9941">updated balance</text></g><g class="message" data-participant-1="GAME" data-participant-2="PC"><polygon fill="#181818" points="80.147,1099.0469,70.147,1103.0469,80.147,1107.0469,76.147,1103.0469" style="stroke:#181818;stroke-width:1;"/><line style="stroke:#181818;stroke-width:1;stroke-dasharray:2,2;" x1="74.147" x2="206.4707" y1="1103.0469" y2="1103.0469"/><text fill="#000000" font-family="sans-serif" font-size="13" lengthAdjust="spacing" textLength="35.877" x="86.147" y="1098.3047">result</text></g><path d="M10,1125.0469 L77.1851,1125.0469 L77.1851,1132.3574 L67.1851,1142.3574 L10,1142.3574 L10,1125.0469" fill="#EEEEEE" style="stroke:#000000;stroke-width:1.5;"/><rect fill="none" height="134.5527" style="stroke:#000000;stroke-width:1.5;" width="986.3027" x="10" y="1125.0469"/><text fill="#000000" font-family="sans-serif" font-size="13" font-weight="bold" lengthAdjust="spacing" textLength="22.1851" x="25" y="1138.6152">opt</text><text fill="#000000" font-family="sans-serif" font-size="11" font-weight="bold" lengthAdjust="spacing" textLength="117.8633" x="92.1851" y="1137.6816">[Round Cancellation]</text><g class="message" data-participant-1="PC" data-participant-2="CS"><polygon fill="#181818" points="585.3867,1159.668,595.3867,1163.668,585.3867,1167.668,589.3867,1163.668" style="stroke:#181818;stroke-width:1;"/><line style="stroke:#181818;stroke-width:1;" x1="69.147" x2="591.3867" y1="1163.668" y2="1163.668"/><text fill="#000000" font-family="sans-serif" font-size="13" lengthAdjust="spacing" textLength="48.02" x="76.147" y="1158.9258">(cancel)</text></g><g class="message" data-participant-1="CS" data-participant-2="WS"><polygon fill="#181818" points="889.4624,1188.9785,899.4624,1192.9785,889.4624,1196.9785,893.4624,1192.9785" style="stroke:#181818;stroke-width:1;"/><line style="stroke:#181818;stroke-width:1;" x1="607.3867" x2="895.4624" y1="1192.9785" y2="1192.9785"/><text fill="#000000" font-family="sans-serif" font-size="13" lengthAdjust="spacing" textLength="248.2441" x="614.3867" y="1188.2363">DELETE /game_round/{game_round_id}</text></g><g class="message" data-participant-1="WS" data-participant-2="CS"><polygon fill="#181818" points="618.3867,1218.2891,608.3867,1222.2891,618.3867,1226.2891,614.3867,1222.2891" style="stroke:#181818;stroke-width:1;"/><line style="stroke:#181818;stroke-width:1;stroke-dasharray:2,2;" x1="612.3867" x2="905.4624" y1="1222.2891" y2="1222.2891"/><text fill="#000000" font-family="sans-serif" font-size="13" lengthAdjust="spacing" textLength="104.2793" x="624.3867" y="1217.5469">updated balance</text></g><g class="message" data-participant-1="CS" data-participant-2="PC"><polygon fill="#181818" points="80.147,1247.5996,70.147,1251.5996,80.147,1255.5996,76.147,1251.5996" style="stroke:#181818;stroke-width:1;"/><line style="stroke:#181818;stroke-width:1;stroke-dasharray:2,2;" x1="74.147" x2="601.3867" y1="1251.5996" y2="1251.5996"/><text fill="#000000" font-family="sans-serif" font-size="13" lengthAdjust="spacing" textLength="104.2793" x="86.147" y="1246.8574">updated balance</text></g><!--SRC=[hPJ1Zjem48RlUOhHde8GGkeHYPMMBE92rOXinH4Psu1RruviXnLQzTqx7WD90ArwM0uGClzC_lbcd9gveBYgcGdmL6fsaWuAhQG9Jy0yb4LMTnKBzaT2rTGrIXmf5Y_VvttDxDiCIhnXiDICyT_IY5HhrjSLp2jZePBkgBWaIL7r9PSoQwQr33tfkigowHJEbYiPcXgcqwmiOFICZuBX42QmadlbWsD1MPFXJGmLLGgLFwet6DUKxY7dJh8WmH-OiE_GUEa66Kf7gTXeX1d8X2cpOPpRneID4fcGZ0TrZ8dONFTVaMMs3Z2pfl7m4d7nP0BmyucHyKUwmEf_nzkOJHatJYW0ZAOWCkHBA6WshyfpUvJk567Sq81yZn3tKOPkcBRxmGsKnHojQBlTdY2NMWafGErGp0zItF58kfr4qRiA1ohi7nNyXKjGs-3_e-PP2WBzKQaOAr9iXOtYgEcnRSDBrXX-e6uZyIhWob04mQNs-w2Zo_57_2R6I6IZgSIcSHfoBxNa2T80AtGdciRmZ9jtFxZUt5WJ3hWiSUJHnJgrI9rYMXA2CZiBGzWopGoNMJlZSxVai7M6Wiv-uJcvT5SM4t1IA1Tj1qjvrs0yd1FmaKc_0BQ3DE6ACPg2fRLqXdJy9RWht7IHLh0jYDrF8D_ACA00tRfWxWOUqQAkNAnwdW5THsgKSeEggN4FS5zQI5TCwQcFHFUc81BoZGwFRFtyr1NaANFmPVPQTvTXNztHGOvBJDYXY7gjE- -DtZhddEAFMB_Eb_Et-HVIlYpbhIGw_WS0]--></g></svg>