<svg xmlns="http://www.w3.org/2000/svg" xmlns:xlink="http://www.w3.org/1999/xlink" contentStyleType="text/css" data-diagram-type="SEQUENCE" height="1653px" preserveAspectRatio="none" style="width:697px;height:1653px;background:#FFFFFF;" version="1.1" viewBox="0 0 697 1653" width="697px" zoomAndPan="magnify"><defs/><g><rect fill="#F5F5FF" height="1641.1934" style="stroke:#181818;stroke-width:0.5;" width="129.4375" x="289.7817" y="6"/><text fill="#000000" font-family="sans-serif" font-size="13" font-weight="bold" lengthAdjust="spacing" textLength="78.0952" x="315.4529" y="18.5684">B2B Partner</text><rect fill="#F5F5FF" height="1641.1934" style="stroke:#181818;stroke-width:0.5;" width="111.6514" x="562.7402" y="6"/><text fill="#000000" font-family="sans-serif" font-size="13" font-weight="bold" lengthAdjust="spacing" textLength="42.0215" x="597.5552" y="18.5684">Entain</text><g><title>Player Client</title><rect fill="#FFFFFF" height="159.5527" style="stroke:#181818;stroke-width:1;" width="10" x="74.147" y="678.6992"/></g><g><title>Game Supplier</title><rect fill="#FFFFFF" height="263.7949" style="stroke:#181818;stroke-width:1;" width="10" x="212.4707" y="935.1836"/></g><g><title>Backend</title><rect fill="#FFFFFF" height="58.6211" style="stroke:#181818;stroke-width:1;" width="10" x="320.0005" y="148.4199"/></g><g><title>Backend</title><rect fill="#FFFFFF" height="146.5527" style="stroke:#181818;stroke-width:1;" width="10" x="320.0005" y="459.5254"/></g><g><title>Wallet</title><rect fill="#FFFFFF" height="29.3105" style="stroke:#181818;stroke-width:1;" width="10" x="385.7192" y="708.0098"/></g><g><title>Wallet</title><rect fill="#FFFFFF" height="29.3105" style="stroke:#181818;stroke-width:1;" width="10" x="385.7192" y="993.8047"/></g><g><title>Wallet</title><rect fill="#FFFFFF" height="29.3105" style="stroke:#181818;stroke-width:1;" width="10" x="385.7192" y="1111.0469"/></g><g><title>Wallet</title><rect fill="#FFFFFF" height="29.3105" style="stroke:#181818;stroke-width:1;" width="10" x="385.7192" y="1288.9102"/></g><g><title>Wallet</title><rect fill="#FFFFFF" height="29.3105" style="stroke:#181818;stroke-width:1;" width="10" x="385.7192" y="1541.3945"/></g><g><title>Casino Service</title><rect fill="#FFFFFF" height="29.3105" style="stroke:#181818;stroke-width:1;" width="10" x="613.5659" y="177.7305"/></g><g><title>Casino Service</title><rect fill="#FFFFFF" height="29.3105" style="stroke:#181818;stroke-width:1;" width="10" x="613.5659" y="303.9727"/></g><g><title>Casino Service</title><rect fill="#FFFFFF" height="29.3105" style="stroke:#181818;stroke-width:1;" width="10" x="613.5659" y="393.9043"/></g><g><title>Casino Service</title><rect fill="#FFFFFF" height="29.3105" style="stroke:#181818;stroke-width:1;" width="10" x="613.5659" y="488.8359"/></g><g><title>Casino Service</title><rect fill="#FFFFFF" height="29.3105" style="stroke:#181818;stroke-width:1;" width="10" x="613.5659" y="547.457"/></g><g><title>Casino Service</title><rect fill="#FFFFFF" height="87.9316" style="stroke:#181818;stroke-width:1;" width="10" x="613.5659" y="678.6992"/></g><g><title>Casino Service</title><rect fill="#FFFFFF" height="87.9316" style="stroke:#181818;stroke-width:1;" width="10" x="613.5659" y="964.4941"/></g><g><title>Casino Service</title><rect fill="#FFFFFF" height="87.9316" style="stroke:#181818;stroke-width:1;" width="10" x="613.5659" y="1081.7363"/></g><g><title>Casino Service</title><rect fill="#FFFFFF" height="87.9316" style="stroke:#181818;stroke-width:1;" width="10" x="613.5659" y="1259.5996"/></g><g><title>Casino Service</title><rect fill="#FFFFFF" height="29.3105" style="stroke:#181818;stroke-width:1;" width="10" x="613.5659" y="1451.4629"/></g><rect fill="none" height="75.9316" style="stroke:#000000;stroke-width:1.5;" width="396.6099" x="283.7817" y="265.3516"/><rect fill="none" height="75.9316" style="stroke:#000000;stroke-width:1.5;" width="396.6099" x="283.7817" y="355.2832"/><rect fill="none" height="310.416" style="stroke:#000000;stroke-width:1.5;" width="670.3916" x="10" y="896.5625"/><rect fill="none" height="134.5527" style="stroke:#000000;stroke-width:1.5;" width="539.2319" x="141.1597" y="1220.9785"/><rect fill="none" height="75.9316" style="stroke:#000000;stroke-width:1.5;" width="396.6099" x="283.7817" y="1412.8418"/><rect fill="none" height="75.9316" style="stroke:#000000;stroke-width:1.5;" width="324.1724" x="356.2192" y="1502.7734"/><g><title>Player Client</title><rect fill="#000000" fill-opacity="0.00000" height="1521.9063" width="8" x="75.147" y="73.7988"/><line style="stroke:#181818;stroke-width:0.5;stroke-dasharray:5,5;" x1="79" x2="79" y1="73.7988" y2="1595.7051"/></g><g><title>Game Supplier</title><rect fill="#000000" fill-opacity="0.00000" height="1521.9063" width="8" x="213.4707" y="73.7988"/><line style="stroke:#181818;stroke-width:0.5;stroke-dasharray:5,5;" x1="217.1597" x2="217.1597" y1="73.7988" y2="1595.7051"/></g><g><title>Backend</title><rect fill="#000000" fill-opacity="0.00000" height="1521.9063" width="8" x="321.0005" y="73.7988"/><line style="stroke:#181818;stroke-width:0.5;stroke-dasharray:5,5;" x1="324.7817" x2="324.7817" y1="73.7988" y2="1595.7051"/></g><g><title>Wallet</title><rect fill="#000000" fill-opacity="0.00000" height="1521.9063" width="8" x="386.7192" y="73.7988"/><line style="stroke:#181818;stroke-width:0.5;stroke-dasharray:5,5;" x1="390.2192" x2="390.2192" y1="73.7988" y2="1595.7051"/></g><g><title>Casino Service</title><rect fill="#000000" fill-opacity="0.00000" height="1521.9063" width="8" x="614.5659" y="73.7988"/><line style="stroke:#181818;stroke-width:0.5;stroke-dasharray:5,5;" x1="617.7402" x2="617.7402" y1="73.7988" y2="1595.7051"/></g><g class="participant participant-head" data-participant="PC"><rect fill="#E2E2F0" height="30.4883" rx="2.5" ry="2.5" style="stroke:#181818;stroke-width:0.5;" width="98.2939" x="30" y="42.3105"/><text fill="#000000" font-family="sans-serif" font-size="14" lengthAdjust="spacing" textLength="84.2939" x="37" y="62.8457">Player Client</text></g><g class="participant participant-tail" data-participant="PC"><rect fill="#E2E2F0" height="30.4883" rx="2.5" ry="2.5" style="stroke:#181818;stroke-width:0.5;" width="98.2939" x="30" y="1594.7051"/><text fill="#000000" font-family="sans-serif" font-size="14" lengthAdjust="spacing" textLength="84.2939" x="37" y="1615.2402">Player Client</text></g><g class="participant participant-head" data-participant="GAME"><rect fill="#E2E2F0" height="30.4883" rx="2.5" ry="2.5" style="stroke:#181818;stroke-width:0.5;" width="112.6221" x="161.1597" y="42.3105"/><text fill="#000000" font-family="sans-serif" font-size="14" lengthAdjust="spacing" textLength="98.6221" x="168.1597" y="62.8457">Game Supplier</text></g><g class="participant participant-tail" data-participant="GAME"><rect fill="#E2E2F0" height="30.4883" rx="2.5" ry="2.5" style="stroke:#181818;stroke-width:0.5;" width="112.6221" x="161.1597" y="1594.7051"/><text fill="#000000" font-family="sans-serif" font-size="14" lengthAdjust="spacing" textLength="98.6221" x="168.1597" y="1615.2402">Game Supplier</text></g><g class="participant participant-head" data-participant="PB"><text fill="#000000" font-family="sans-serif" font-size="14" lengthAdjust="spacing" textLength="56.4375" x="293.7817" y="70.8457">Backend</text><path d="M304.5005,29.3105 L304.5005,53.3105 M304.5005,41.3105 L321.5005,41.3105" fill="none" style="stroke:#181818;stroke-width:0.5;"/><ellipse cx="333.5005" cy="41.3105" fill="#E2E2F0" rx="12" ry="12" style="stroke:#181818;stroke-width:0.5;"/></g><g class="participant participant-tail" data-participant="PB"><text fill="#000000" font-family="sans-serif" font-size="14" lengthAdjust="spacing" textLength="56.4375" x="293.7817" y="1608.2402">Backend</text><path d="M304.5005,1615.1934 L304.5005,1639.1934 M304.5005,1627.1934 L321.5005,1627.1934" fill="none" style="stroke:#181818;stroke-width:0.5;"/><ellipse cx="333.5005" cy="1627.1934" fill="#E2E2F0" rx="12" ry="12" style="stroke:#181818;stroke-width:0.5;"/></g><g class="participant participant-head" data-participant="WS"><text fill="#000000" font-family="sans-serif" font-size="14" lengthAdjust="spacing" textLength="40.8379" x="367.3003" y="70.8457">Wallet</text><path d="M370.2192,29.3105 L370.2192,53.3105 M370.2192,41.3105 L387.2192,41.3105" fill="none" style="stroke:#181818;stroke-width:0.5;"/><ellipse cx="399.2192" cy="41.3105" fill="#E2E2F0" rx="12" ry="12" style="stroke:#181818;stroke-width:0.5;"/></g><g class="participant participant-tail" data-participant="WS"><text fill="#000000" font-family="sans-serif" font-size="14" lengthAdjust="spacing" textLength="40.8379" x="367.3003" y="1608.2402">Wallet</text><path d="M370.2192,1615.1934 L370.2192,1639.1934 M370.2192,1627.1934 L387.2192,1627.1934" fill="none" style="stroke:#181818;stroke-width:0.5;"/><ellipse cx="399.2192" cy="1627.1934" fill="#E2E2F0" rx="12" ry="12" style="stroke:#181818;stroke-width:0.5;"/></g><g class="participant participant-head" data-participant="CS"><text fill="#000000" font-family="sans-serif" font-size="14" lengthAdjust="spacing" textLength="97.6514" x="566.7402" y="70.8457">Casino Service</text><path d="M598.0659,29.3105 L598.0659,53.3105 M598.0659,41.3105 L615.0659,41.3105" fill="none" style="stroke:#181818;stroke-width:0.5;"/><ellipse cx="627.0659" cy="41.3105" fill="#E2E2F0" rx="12" ry="12" style="stroke:#181818;stroke-width:0.5;"/></g><g class="participant participant-tail" data-participant="CS"><text fill="#000000" font-family="sans-serif" font-size="14" lengthAdjust="spacing" textLength="97.6514" x="566.7402" y="1608.2402">Casino Service</text><path d="M598.0659,1615.1934 L598.0659,1639.1934 M598.0659,1627.1934 L615.0659,1627.1934" fill="none" style="stroke:#181818;stroke-width:0.5;"/><ellipse cx="627.0659" cy="1627.1934" fill="#E2E2F0" rx="12" ry="12" style="stroke:#181818;stroke-width:0.5;"/></g><g><title>Player Client</title><rect fill="#FFFFFF" height="159.5527" style="stroke:#181818;stroke-width:1;" width="10" x="74.147" y="678.6992"/></g><g><title>Game Supplier</title><rect fill="#FFFFFF" height="263.7949" style="stroke:#181818;stroke-width:1;" width="10" x="212.4707" y="935.1836"/></g><g><title>Backend</title><rect fill="#FFFFFF" height="58.6211" style="stroke:#181818;stroke-width:1;" width="10" x="320.0005" y="148.4199"/></g><g><title>Backend</title><rect fill="#FFFFFF" height="146.5527" style="stroke:#181818;stroke-width:1;" width="10" x="320.0005" y="459.5254"/></g><g><title>Wallet</title><rect fill="#FFFFFF" height="29.3105" style="stroke:#181818;stroke-width:1;" width="10" x="385.7192" y="708.0098"/></g><g><title>Wallet</title><rect fill="#FFFFFF" height="29.3105" style="stroke:#181818;stroke-width:1;" width="10" x="385.7192" y="993.8047"/></g><g><title>Wallet</title><rect fill="#FFFFFF" height="29.3105" style="stroke:#181818;stroke-width:1;" width="10" x="385.7192" y="1111.0469"/></g><g><title>Wallet</title><rect fill="#FFFFFF" height="29.3105" style="stroke:#181818;stroke-width:1;" width="10" x="385.7192" y="1288.9102"/></g><g><title>Wallet</title><rect fill="#FFFFFF" height="29.3105" style="stroke:#181818;stroke-width:1;" width="10" x="385.7192" y="1541.3945"/></g><g><title>Casino Service</title><rect fill="#FFFFFF" height="29.3105" style="stroke:#181818;stroke-width:1;" width="10" x="613.5659" y="177.7305"/></g><g><title>Casino Service</title><rect fill="#FFFFFF" height="29.3105" style="stroke:#181818;stroke-width:1;" width="10" x="613.5659" y="303.9727"/></g><g><title>Casino Service</title><rect fill="#FFFFFF" height="29.3105" style="stroke:#181818;stroke-width:1;" width="10" x="613.5659" y="393.9043"/></g><g><title>Casino Service</title><rect fill="#FFFFFF" height="29.3105" style="stroke:#181818;stroke-width:1;" width="10" x="613.5659" y="488.8359"/></g><g><title>Casino Service</title><rect fill="#FFFFFF" height="29.3105" style="stroke:#181818;stroke-width:1;" width="10" x="613.5659" y="547.457"/></g><g><title>Casino Service</title><rect fill="#FFFFFF" height="87.9316" style="stroke:#181818;stroke-width:1;" width="10" x="613.5659" y="678.6992"/></g><g><title>Casino Service</title><rect fill="#FFFFFF" height="87.9316" style="stroke:#181818;stroke-width:1;" width="10" x="613.5659" y="964.4941"/></g><g><title>Casino Service</title><rect fill="#FFFFFF" height="87.9316" style="stroke:#181818;stroke-width:1;" width="10" x="613.5659" y="1081.7363"/></g><g><title>Casino Service</title><rect fill="#FFFFFF" height="87.9316" style="stroke:#181818;stroke-width:1;" width="10" x="613.5659" y="1259.5996"/></g><g><title>Casino Service</title><rect fill="#FFFFFF" height="29.3105" style="stroke:#181818;stroke-width:1;" width="10" x="613.5659" y="1451.4629"/></g><rect fill="#EEEEEE" height="3" style="stroke:#EEEEEE;stroke-width:1;" width="690.3916" x="0" y="104.4541"/><line style="stroke:#000000;stroke-width:1;" x1="0" x2="690.3916" y1="104.4541" y2="104.4541"/><line style="stroke:#000000;stroke-width:1;" x1="0" x2="690.3916" y1="107.4541" y2="107.4541"/><rect fill="#EEEEEE" height="23.3105" style="stroke:#000000;stroke-width:2;" width="100.9819" x="294.7048" y="93.7988"/><text fill="#000000" font-family="sans-serif" font-size="13" font-weight="bold" lengthAdjust="spacing" textLength="82.6973" x="300.7048" y="110.3672">Player Setup</text><g class="message" data-participant-1="PC" data-participant-2="PB"><polygon fill="#181818" points="308.0005,144.4199,318.0005,148.4199,308.0005,152.4199,312.0005,148.4199" style="stroke:#181818;stroke-width:1;"/><line style="stroke:#181818;stroke-width:1;" x1="79.147" x2="314.0005" y1="148.4199" y2="148.4199"/><text fill="#000000" font-family="sans-serif" font-size="13" lengthAdjust="spacing" textLength="75.9878" x="86.147" y="143.6777">Registration</text></g><g class="message" data-participant-1="PB" data-participant-2="CS"><polygon fill="#181818" points="601.5659,173.7305,611.5659,177.7305,601.5659,181.7305,605.5659,177.7305" style="stroke:#181818;stroke-width:1;"/><line style="stroke:#181818;stroke-width:1;" x1="330.0005" x2="607.5659" y1="177.7305" y2="177.7305"/><text fill="#000000" font-family="sans-serif" font-size="13" lengthAdjust="spacing" textLength="117.4697" x="337.0005" y="172.9883">CreateShadowUser</text></g><g class="message" data-participant-1="CS" data-participant-2="PB"><polygon fill="#181818" points="336.0005,203.041,326.0005,207.041,336.0005,211.041,332.0005,207.041" style="stroke:#181818;stroke-width:1;"/><line style="stroke:#181818;stroke-width:1;stroke-dasharray:2,2;" x1="330.0005" x2="617.5659" y1="207.041" y2="207.041"/><text fill="#000000" font-family="sans-serif" font-size="13" lengthAdjust="spacing" textLength="113.5977" x="342.0005" y="202.2988">entain_account_id</text></g><rect fill="#EEEEEE" height="3" style="stroke:#EEEEEE;stroke-width:1;" width="690.3916" x="0" y="235.6963"/><line style="stroke:#000000;stroke-width:1;" x1="0" x2="690.3916" y1="235.6963" y2="235.6963"/><line style="stroke:#000000;stroke-width:1;" x1="0" x2="690.3916" y1="238.6963" y2="238.6963"/><rect fill="#EEEEEE" height="23.3105" style="stroke:#000000;stroke-width:2;" width="126.0552" x="282.1682" y="225.041"/><text fill="#000000" font-family="sans-serif" font-size="13" font-weight="bold" lengthAdjust="spacing" textLength="107.7705" x="288.1682" y="241.6094">Game Discovery</text><path d="M283.7817,265.3516 L358.2285,265.3516 L358.2285,272.6621 L348.2285,282.6621 L283.7817,282.6621 L283.7817,265.3516" fill="#EEEEEE" style="stroke:#000000;stroke-width:1.5;"/><rect fill="none" height="75.9316" style="stroke:#000000;stroke-width:1.5;" width="396.6099" x="283.7817" y="265.3516"/><text fill="#000000" font-family="sans-serif" font-size="13" font-weight="bold" lengthAdjust="spacing" textLength="29.4468" x="298.7817" y="278.9199">loop</text><text fill="#000000" font-family="sans-serif" font-size="11" font-weight="bold" lengthAdjust="spacing" textLength="156.4063" x="373.2285" y="277.9863">[Game metadata (~30 min)]</text><g class="message" data-participant-1="PB" data-participant-2="CS"><polygon fill="#181818" points="601.5659,299.9727,611.5659,303.9727,601.5659,307.9727,605.5659,303.9727" style="stroke:#181818;stroke-width:1;"/><line style="stroke:#181818;stroke-width:1;" x1="325.0005" x2="607.5659" y1="303.9727" y2="303.9727"/><text fill="#000000" font-family="sans-serif" font-size="13" lengthAdjust="spacing" textLength="120.834" x="332.0005" y="299.2305">GetAvailableGames</text></g><g class="message" data-participant-1="CS" data-participant-2="PB"><polygon fill="#181818" points="336.0005,329.2832,326.0005,333.2832,336.0005,337.2832,332.0005,333.2832" style="stroke:#181818;stroke-width:1;"/><line style="stroke:#181818;stroke-width:1;stroke-dasharray:2,2;" x1="330.0005" x2="617.5659" y1="333.2832" y2="333.2832"/><text fill="#000000" font-family="sans-serif" font-size="13" lengthAdjust="spacing" textLength="99.0234" x="342.0005" y="328.541">GameCollection</text></g><path d="M283.7817,355.2832 L358.2285,355.2832 L358.2285,362.5938 L348.2285,372.5938 L283.7817,372.5938 L283.7817,355.2832" fill="#EEEEEE" style="stroke:#000000;stroke-width:1.5;"/><rect fill="none" height="75.9316" style="stroke:#000000;stroke-width:1.5;" width="396.6099" x="283.7817" y="355.2832"/><text fill="#000000" font-family="sans-serif" font-size="13" font-weight="bold" lengthAdjust="spacing" textLength="29.4468" x="298.7817" y="368.8516">loop</text><text fill="#000000" font-family="sans-serif" font-size="11" font-weight="bold" lengthAdjust="spacing" textLength="144.4126" x="373.2285" y="367.918">[Game updates (3-5 sec)]</text><g class="message" data-participant-1="PB" data-participant-2="CS"><polygon fill="#181818" points="601.5659,389.9043,611.5659,393.9043,601.5659,397.9043,605.5659,393.9043" style="stroke:#181818;stroke-width:1;"/><line style="stroke:#181818;stroke-width:1;" x1="325.0005" x2="607.5659" y1="393.9043" y2="393.9043"/><text fill="#000000" font-family="sans-serif" font-size="13" lengthAdjust="spacing" textLength="108.7354" x="332.0005" y="389.1621">GetGameUpdates</text></g><g class="message" data-participant-1="CS" data-participant-2="PB"><polygon fill="#181818" points="336.0005,419.2148,326.0005,423.2148,336.0005,427.2148,332.0005,423.2148" style="stroke:#181818;stroke-width:1;"/><line style="stroke:#181818;stroke-width:1;stroke-dasharray:2,2;" x1="330.0005" x2="617.5659" y1="423.2148" y2="423.2148"/><text fill="#000000" font-family="sans-serif" font-size="13" lengthAdjust="spacing" textLength="87.2358" x="342.0005" y="418.4727">GameUpdates</text></g><g class="message" data-participant-1="PC" data-participant-2="PB"><polygon fill="#181818" points="308.0005,455.5254,318.0005,459.5254,308.0005,463.5254,312.0005,459.5254" style="stroke:#181818;stroke-width:1;"/><line style="stroke:#181818;stroke-width:1;" x1="79.147" x2="314.0005" y1="459.5254" y2="459.5254"/><text fill="#000000" font-family="sans-serif" font-size="13" lengthAdjust="spacing" textLength="38.0732" x="86.147" y="454.7832">Lobby</text></g><g class="message" data-participant-1="PB" data-participant-2="CS"><polygon fill="#181818" points="601.5659,484.8359,611.5659,488.8359,601.5659,492.8359,605.5659,488.8359" style="stroke:#181818;stroke-width:1;"/><line style="stroke:#181818;stroke-width:1;" x1="330.0005" x2="607.5659" y1="488.8359" y2="488.8359"/><text fill="#000000" font-family="sans-serif" font-size="13" lengthAdjust="spacing" textLength="228.5664" x="337.0005" y="484.0938">GetCommonLobby (elided if cached)</text></g><g class="message" data-participant-1="CS" data-participant-2="PB"><polygon fill="#181818" points="341.0005,514.1465,331.0005,518.1465,341.0005,522.1465,337.0005,518.1465" style="stroke:#181818;stroke-width:1;"/><line style="stroke:#181818;stroke-width:1;stroke-dasharray:2,2;" x1="335.0005" x2="617.5659" y1="518.1465" y2="518.1465"/><text fill="#000000" font-family="sans-serif" font-size="13" lengthAdjust="spacing" textLength="101.1436" x="347.0005" y="513.4043">LobbyCollection</text></g><g class="message" data-participant-1="PB" data-participant-2="CS"><polygon fill="#181818" points="601.5659,543.457,611.5659,547.457,601.5659,551.457,605.5659,547.457" style="stroke:#181818;stroke-width:1;"/><line style="stroke:#181818;stroke-width:1;" x1="330.0005" x2="607.5659" y1="547.457" y2="547.457"/><text fill="#000000" font-family="sans-serif" font-size="13" lengthAdjust="spacing" textLength="186.3228" x="337.0005" y="542.7148">GetJackpots (elided if cached)</text></g><g class="message" data-participant-1="CS" data-participant-2="PB"><polygon fill="#181818" points="341.0005,572.7676,331.0005,576.7676,341.0005,580.7676,337.0005,576.7676" style="stroke:#181818;stroke-width:1;"/><line style="stroke:#181818;stroke-width:1;stroke-dasharray:2,2;" x1="335.0005" x2="617.5659" y1="576.7676" y2="576.7676"/><text fill="#000000" font-family="sans-serif" font-size="13" lengthAdjust="spacing" textLength="109.5796" x="347.0005" y="572.0254">JackpotCollection</text></g><g class="message" data-participant-1="PB" data-participant-2="PC"><polygon fill="#181818" points="90.147,602.0781,80.147,606.0781,90.147,610.0781,86.147,606.0781" style="stroke:#181818;stroke-width:1;"/><line style="stroke:#181818;stroke-width:1;stroke-dasharray:2,2;" x1="84.147" x2="324.0005" y1="606.0781" y2="606.0781"/><text fill="#000000" font-family="sans-serif" font-size="13" lengthAdjust="spacing" textLength="83.2876" x="96.147" y="601.3359">Render lobby</text></g><rect fill="#EEEEEE" height="3" style="stroke:#EEEEEE;stroke-width:1;" width="690.3916" x="0" y="634.7334"/><line style="stroke:#000000;stroke-width:1;" x1="0" x2="690.3916" y1="634.7334" y2="634.7334"/><line style="stroke:#000000;stroke-width:1;" x1="0" x2="690.3916" y1="637.7334" y2="637.7334"/><rect fill="#EEEEEE" height="23.3105" style="stroke:#000000;stroke-width:2;" width="107.8628" x="291.2644" y="624.0781"/><text fill="#000000" font-family="sans-serif" font-size="13" font-weight="bold" lengthAdjust="spacing" textLength="89.5781" x="297.2644" y="640.6465">Game Launch</text><g class="message" data-participant-1="PC" data-participant-2="CS"><polygon fill="#181818" points="601.5659,674.6992,611.5659,678.6992,601.5659,682.6992,605.5659,678.6992" style="stroke:#181818;stroke-width:1;"/><line style="stroke:#181818;stroke-width:1;" x1="84.147" x2="607.5659" y1="678.6992" y2="678.6992"/><text fill="#000000" font-family="sans-serif" font-size="13" lengthAdjust="spacing" textLength="208.2476" x="91.147" y="673.957">GetGameLaunchUrl (select game)</text></g><g class="message" data-participant-1="CS" data-participant-2="WS"><polygon fill="#181818" points="406.7192,704.0098,396.7192,708.0098,406.7192,712.0098,402.7192,708.0098" style="stroke:#181818;stroke-width:1;"/><line style="stroke:#181818;stroke-width:1;" x1="400.7192" x2="612.5659" y1="708.0098" y2="708.0098"/><text fill="#000000" font-family="sans-serif" font-size="13" lengthAdjust="spacing" textLength="164.6265" x="412.7192" y="703.2676">PlayerSessionAuthenticate</text></g><g class="message" data-participant-1="WS" data-participant-2="CS"><polygon fill="#181818" points="601.5659,733.3203,611.5659,737.3203,601.5659,741.3203,605.5659,737.3203" style="stroke:#181818;stroke-width:1;"/><line style="stroke:#181818;stroke-width:1;stroke-dasharray:2,2;" x1="390.7192" x2="607.5659" y1="737.3203" y2="737.3203"/><text fill="#000000" font-family="sans-serif" font-size="13" lengthAdjust="spacing" textLength="190.0806" x="397.7192" y="732.5781">PlayerAuthenticationResponse</text></g><g class="message" data-participant-1="CS" data-participant-2="PC"><polygon fill="#181818" points="95.147,762.6309,85.147,766.6309,95.147,770.6309,91.147,766.6309" style="stroke:#181818;stroke-width:1;"/><line style="stroke:#181818;stroke-width:1;stroke-dasharray:2,2;" x1="89.147" x2="617.5659" y1="766.6309" y2="766.6309"/><text fill="#000000" font-family="sans-serif" font-size="13" lengthAdjust="spacing" textLength="106.6089" x="101.147" y="761.8887">game_launch_url</text></g><g class="message" data-participant-1="PC" data-participant-2="PC"><line style="stroke:#181818;stroke-width:1;" x1="84.147" x2="126.147" y1="795.9414" y2="795.9414"/><line style="stroke:#181818;stroke-width:1;" x1="126.147" x2="126.147" y1="795.9414" y2="808.9414"/><line style="stroke:#181818;stroke-width:1;" x1="85.147" x2="126.147" y1="808.9414" y2="808.9414"/><polygon fill="#181818" points="95.147,804.9414,85.147,808.9414,95.147,812.9414,91.147,808.9414" style="stroke:#181818;stroke-width:1;"/><text fill="#000000" font-family="sans-serif" font-size="13" lengthAdjust="spacing" textLength="104.3237" x="91.147" y="791.1992">redirect to game</text></g><g class="message" data-participant-1="PC" data-participant-2="GAME"><polygon fill="#181818" points="205.4707,834.252,215.4707,838.252,205.4707,842.252,209.4707,838.252" style="stroke:#181818;stroke-width:1;"/><line style="stroke:#181818;stroke-width:1;" x1="79.147" x2="211.4707" y1="838.252" y2="838.252"/><text fill="#000000" font-family="sans-serif" font-size="13" lengthAdjust="spacing" textLength="28.8501" x="86.147" y="833.5098">start</text></g><rect fill="#EEEEEE" height="3" style="stroke:#EEEEEE;stroke-width:1;" width="690.3916" x="0" y="866.9072"/><line style="stroke:#000000;stroke-width:1;" x1="0" x2="690.3916" y1="866.9072" y2="866.9072"/><line style="stroke:#000000;stroke-width:1;" x1="0" x2="690.3916" y1="869.9072" y2="869.9072"/><rect fill="#EEEEEE" height="23.3105" style="stroke:#000000;stroke-width:2;" width="120.9707" x="284.7104" y="856.252"/><text fill="#000000" font-family="sans-serif" font-size="13" font-weight="bold" lengthAdjust="spacing" textLength="102.686" x="290.7104" y="872.8203">Gameplay Loop</text><path d="M10,896.5625 L84.4468,896.5625 L84.4468,903.873 L74.4468,913.873 L10,913.873 L10,896.5625" fill="#EEEEEE" style="stroke:#000000;stroke-width:1.5;"/><rect fill="none" height="310.416" style="stroke:#000000;stroke-width:1.5;" width="670.3916" x="10" y="896.5625"/><text fill="#000000" font-family="sans-serif" font-size="13" font-weight="bold" lengthAdjust="spacing" textLength="29.4468" x="25" y="910.1309">loop</text><text fill="#000000" font-family="sans-serif" font-size="11" font-weight="bold" lengthAdjust="spacing" textLength="86.1309" x="99.4468" y="909.1973">[Game Rounds]</text><g class="message" data-participant-1="PC" data-participant-2="GAME"><polygon fill="#181818" points="200.4707,931.1836,210.4707,935.1836,200.4707,939.1836,204.4707,935.1836" style="stroke:#181818;stroke-width:1;"/><line style="stroke:#181818;stroke-width:1;" x1="79.147" x2="206.4707" y1="935.1836" y2="935.1836"/><text fill="#000000" font-family="sans-serif" font-size="13" lengthAdjust="spacing" textLength="28.7422" x="86.147" y="930.4414">(bet)</text></g><g class="message" data-participant-1="GAME" data-participant-2="CS"><polygon fill="#181818" points="601.5659,960.4941,611.5659,964.4941,601.5659,968.4941,605.5659,964.4941" style="stroke:#181818;stroke-width:1;"/><line style="stroke:#181818;stroke-width:1;" x1="222.4707" x2="607.5659" y1="964.4941" y2="964.4941"/><text fill="#000000" font-family="sans-serif" font-size="13" lengthAdjust="spacing" textLength="28.7422" x="229.4707" y="959.752">(bet)</text></g><g class="message" data-participant-1="CS" data-participant-2="WS"><polygon fill="#181818" points="406.7192,989.8047,396.7192,993.8047,406.7192,997.8047,402.7192,993.8047" style="stroke:#181818;stroke-width:1;"/><line style="stroke:#181818;stroke-width:1;" x1="400.7192" x2="612.5659" y1="993.8047" y2="993.8047"/><text fill="#000000" font-family="sans-serif" font-size="13" lengthAdjust="spacing" textLength="183.2568" x="412.7192" y="989.0625">GameRoundTransaction (bet)</text></g><g class="message" data-participant-1="WS" data-participant-2="CS"><polygon fill="#181818" points="601.5659,1019.1152,611.5659,1023.1152,601.5659,1027.1152,605.5659,1023.1152" style="stroke:#181818;stroke-width:1;"/><line style="stroke:#181818;stroke-width:1;stroke-dasharray:2,2;" x1="390.7192" x2="607.5659" y1="1023.1152" y2="1023.1152"/><text fill="#000000" font-family="sans-serif" font-size="13" lengthAdjust="spacing" textLength="107.7578" x="397.7192" y="1018.373">BalanceResponse</text></g><g class="message" data-participant-1="CS" data-participant-2="GAME"><polygon fill="#181818" points="233.4707,1048.4258,223.4707,1052.4258,233.4707,1056.4258,229.4707,1052.4258" style="stroke:#181818;stroke-width:1;"/><line style="stroke:#181818;stroke-width:1;stroke-dasharray:2,2;" x1="227.4707" x2="617.5659" y1="1052.4258" y2="1052.4258"/><text fill="#000000" font-family="sans-serif" font-size="13" lengthAdjust="spacing" textLength="104.2793" x="239.4707" y="1047.6836">updated balance</text></g><g class="message" data-participant-1="GAME" data-participant-2="CS"><polygon fill="#181818" points="601.5659,1077.7363,611.5659,1081.7363,601.5659,1085.7363,605.5659,1081.7363" style="stroke:#181818;stroke-width:1;"/><line style="stroke:#181818;stroke-width:1;" x1="222.4707" x2="607.5659" y1="1081.7363" y2="1081.7363"/><text fill="#000000" font-family="sans-serif" font-size="13" lengthAdjust="spacing" textLength="35.877" x="229.4707" y="1076.9941">result</text></g><g class="message" data-participant-1="CS" data-participant-2="WS"><polygon fill="#181818" points="406.7192,1107.0469,396.7192,1111.0469,406.7192,1115.0469,402.7192,1111.0469" style="stroke:#181818;stroke-width:1;"/><line style="stroke:#181818;stroke-width:1;" x1="400.7192" x2="612.5659" y1="1111.0469" y2="1111.0469"/><text fill="#000000" font-family="sans-serif" font-size="13" lengthAdjust="spacing" textLength="198.8467" x="412.7192" y="1106.3047">GameRoundTransaction (result)</text></g><g class="message" data-participant-1="WS" data-participant-2="CS"><polygon fill="#181818" points="601.5659,1136.3574,611.5659,1140.3574,601.5659,1144.3574,605.5659,1140.3574" style="stroke:#181818;stroke-width:1;"/><line style="stroke:#181818;stroke-width:1;stroke-dasharray:2,2;" x1="390.7192" x2="607.5659" y1="1140.3574" y2="1140.3574"/><text fill="#000000" font-family="sans-serif" font-size="13" lengthAdjust="spacing" textLength="107.7578" x="397.7192" y="1135.6152">BalanceResponse</text></g><g class="message" data-participant-1="CS" data-participant-2="GAME"><polygon fill="#181818" points="233.4707,1165.668,223.4707,1169.668,233.4707,1173.668,229.4707,1169.668" style="stroke:#181818;stroke-width:1;"/><line style="stroke:#181818;stroke-width:1;stroke-dasharray:2,2;" x1="227.4707" x2="617.5659" y1="1169.668" y2="1169.668"/><text fill="#000000" font-family="sans-serif" font-size="13" lengthAdjust="spacing" textLength="104.2793" x="239.4707" y="1164.9258">updated balance</text></g><g class="message" data-participant-1="GAME" data-participant-2="PC"><polygon fill="#181818" points="90.147,1194.9785,80.147,1198.9785,90.147,1202.9785,86.147,1198.9785" style="stroke:#181818;stroke-width:1;"/><line style="stroke:#181818;stroke-width:1;stroke-dasharray:2,2;" x1="84.147" x2="216.4707" y1="1198.9785" y2="1198.9785"/><text fill="#000000" font-family="sans-serif" font-size="13" lengthAdjust="spacing" textLength="35.877" x="96.147" y="1194.2363">result</text></g><path d="M141.1597,1220.9785 L208.3447,1220.9785 L208.3447,1228.2891 L198.3447,1238.2891 L141.1597,1238.2891 L141.1597,1220.9785" fill="#EEEEEE" style="stroke:#000000;stroke-width:1.5;"/><rect fill="none" height="134.5527" style="stroke:#000000;stroke-width:1.5;" width="539.2319" x="141.1597" y="1220.9785"/><text fill="#000000" font-family="sans-serif" font-size="13" font-weight="bold" lengthAdjust="spacing" textLength="22.1851" x="156.1597" y="1234.5469">opt</text><text fill="#000000" font-family="sans-serif" font-size="11" font-weight="bold" lengthAdjust="spacing" textLength="117.8633" x="223.3447" y="1233.6133">[Round Cancellation]</text><g class="message" data-participant-1="GAME" data-participant-2="CS"><polygon fill="#181818" points="601.5659,1255.5996,611.5659,1259.5996,601.5659,1263.5996,605.5659,1259.5996" style="stroke:#181818;stroke-width:1;"/><line style="stroke:#181818;stroke-width:1;" x1="217.4707" x2="607.5659" y1="1259.5996" y2="1259.5996"/><text fill="#000000" font-family="sans-serif" font-size="13" lengthAdjust="spacing" textLength="48.02" x="224.4707" y="1254.8574">(cancel)</text></g><g class="message" data-participant-1="CS" data-participant-2="WS"><polygon fill="#181818" points="406.7192,1284.9102,396.7192,1288.9102,406.7192,1292.9102,402.7192,1288.9102" style="stroke:#181818;stroke-width:1;"/><line style="stroke:#181818;stroke-width:1;" x1="400.7192" x2="612.5659" y1="1288.9102" y2="1288.9102"/><text fill="#000000" font-family="sans-serif" font-size="13" lengthAdjust="spacing" textLength="157.1426" x="412.7192" y="1284.168">GameRoundBetCancelled</text></g><g class="message" data-participant-1="WS" data-participant-2="CS"><polygon fill="#181818" points="601.5659,1314.2207,611.5659,1318.2207,601.5659,1322.2207,605.5659,1318.2207" style="stroke:#181818;stroke-width:1;"/><line style="stroke:#181818;stroke-width:1;stroke-dasharray:2,2;" x1="390.7192" x2="607.5659" y1="1318.2207" y2="1318.2207"/><text fill="#000000" font-family="sans-serif" font-size="13" lengthAdjust="spacing" textLength="107.7578" x="397.7192" y="1313.4785">BalanceResponse</text></g><g class="message" data-participant-1="CS" data-participant-2="GAME"><polygon fill="#181818" points="228.4707,1343.5313,218.4707,1347.5313,228.4707,1351.5313,224.4707,1347.5313" style="stroke:#181818;stroke-width:1;"/><line style="stroke:#181818;stroke-width:1;stroke-dasharray:2,2;" x1="222.4707" x2="617.5659" y1="1347.5313" y2="1347.5313"/><text fill="#000000" font-family="sans-serif" font-size="13" lengthAdjust="spacing" textLength="104.2793" x="234.4707" y="1342.7891">updated balance</text></g><rect fill="#EEEEEE" height="3" style="stroke:#EEEEEE;stroke-width:1;" width="690.3916" x="0" y="1383.1865"/><line style="stroke:#000000;stroke-width:1;" x1="0" x2="690.3916" y1="1383.1865" y2="1383.1865"/><line style="stroke:#000000;stroke-width:1;" x1="0" x2="690.3916" y1="1386.1865" y2="1386.1865"/><rect fill="#EEEEEE" height="23.3105" style="stroke:#000000;stroke-width:2;" width="59.2017" x="315.595" y="1372.5313"/><text fill="#000000" font-family="sans-serif" font-size="13" font-weight="bold" lengthAdjust="spacing" textLength="40.917" x="321.595" y="1389.0996">Bonus</text><path d="M283.7817,1412.8418 L350.9668,1412.8418 L350.9668,1420.1523 L340.9668,1430.1523 L283.7817,1430.1523 L283.7817,1412.8418" fill="#EEEEEE" style="stroke:#000000;stroke-width:1.5;"/><rect fill="none" height="75.9316" style="stroke:#000000;stroke-width:1.5;" width="396.6099" x="283.7817" y="1412.8418"/><text fill="#000000" font-family="sans-serif" font-size="13" font-weight="bold" lengthAdjust="spacing" textLength="22.1851" x="298.7817" y="1426.4102">opt</text><text fill="#000000" font-family="sans-serif" font-size="11" font-weight="bold" lengthAdjust="spacing" textLength="133.3535" x="365.9668" y="1425.4766">[Apply bonus to player]</text><g class="message" data-participant-1="PB" data-participant-2="CS"><polygon fill="#181818" points="601.5659,1447.4629,611.5659,1451.4629,601.5659,1455.4629,605.5659,1451.4629" style="stroke:#181818;stroke-width:1;"/><line style="stroke:#181818;stroke-width:1;" x1="325.0005" x2="607.5659" y1="1451.4629" y2="1451.4629"/><text fill="#000000" font-family="sans-serif" font-size="13" lengthAdjust="spacing" textLength="74.1089" x="332.0005" y="1446.7207">ApplyBonus</text></g><g class="message" data-participant-1="CS" data-participant-2="PB"><polygon fill="#181818" points="336.0005,1476.7734,326.0005,1480.7734,336.0005,1484.7734,332.0005,1480.7734" style="stroke:#181818;stroke-width:1;"/><line style="stroke:#181818;stroke-width:1;stroke-dasharray:2,2;" x1="330.0005" x2="617.5659" y1="1480.7734" y2="1480.7734"/><text fill="#000000" font-family="sans-serif" font-size="13" lengthAdjust="spacing" textLength="89.5273" x="342.0005" y="1476.0313">bonus applied</text></g><path d="M356.2192,1502.7734 L423.4043,1502.7734 L423.4043,1510.084 L413.4043,1520.084 L356.2192,1520.084 L356.2192,1502.7734" fill="#EEEEEE" style="stroke:#000000;stroke-width:1.5;"/><rect fill="none" height="75.9316" style="stroke:#000000;stroke-width:1.5;" width="324.1724" x="356.2192" y="1502.7734"/><text fill="#000000" font-family="sans-serif" font-size="13" font-weight="bold" lengthAdjust="spacing" textLength="22.1851" x="371.2192" y="1516.3418">opt</text><text fill="#000000" font-family="sans-serif" font-size="11" font-weight="bold" lengthAdjust="spacing" textLength="85.2769" x="438.4043" y="1515.4082">[Bonus payout]</text><g class="message" data-participant-1="CS" data-participant-2="WS"><polygon fill="#181818" points="406.7192,1537.3945,396.7192,1541.3945,406.7192,1545.3945,402.7192,1541.3945" style="stroke:#181818;stroke-width:1;"/><line style="stroke:#181818;stroke-width:1;" x1="400.7192" x2="617.5659" y1="1541.3945" y2="1541.3945"/><text fill="#000000" font-family="sans-serif" font-size="13" lengthAdjust="spacing" textLength="80.2979" x="412.7192" y="1536.6523">BonusPayout</text></g><g class="message" data-participant-1="WS" data-participant-2="CS"><polygon fill="#181818" points="606.5659,1566.7051,616.5659,1570.7051,606.5659,1574.7051,610.5659,1570.7051" style="stroke:#181818;stroke-width:1;"/><line style="stroke:#181818;stroke-width:1;stroke-dasharray:2,2;" x1="390.7192" x2="612.5659" y1="1570.7051" y2="1570.7051"/><text fill="#000000" font-family="sans-serif" font-size="13" lengthAdjust="spacing" textLength="107.7578" x="397.7192" y="1565.9629">BalanceResponse</text></g><!--SRC=[hLN1RXen4BtxAqRfXIX2IXlbWaGas4QHgbH2RACSqU2T12l6NgszD5pwxHsF2Rj0K-KGEE5vVlDcveq9ByRLsE0QPjX4eqsDBiwmgenxXg-NIjNTCPpDB6wfWS8QSl4CCC2iE4JSuPgWREkQ8OqWxYO_RvLQ-bSuctwRIXgNGb-Uhldxf80_Iz-w2fijGr2_aAioz_Ge-8ZMKixxM2g6SUnrntth8Xht7cs1mJWF9JKReqaOYXw36ezXLrj9iQrXF5Qp0eOth04kBc04Stes8JOOZNUA3pbKb3bKD8IHoXLM_lT3e4PnO9Yl3eSS9r6sGArPJboOIbM4EfeDtqerzdyL8aMQ-Dq4xJV4wbcCijxN-NnD4IkC28C_LvUmDkvSQZtKT4Tnia5ZSMaftGg2wGiR2LlXkQDQYag0Gs7SddxYjkQq561mDRo6GFeahwHDq8UCV2VdMrJeUrqUmRrVBhVgcB7mwxLt4eC1MLDH1UO9DEeLLUV7tHPShwoJllnWXzK-XWzmxQ17R0bGPC2SQs3FMD6zdzmzjawlP6ovl5xs1CZnXyR2851YXcS-FLTz6oGbD-poV35xiwGGMCIaZIlsbD4CLOzPiGZV0ti8niyfrDu5sbUt4v-IBgneMRIDxVkGTsCtc6843LMcIIgZbpkxKDhh4OJ8-_oEXMiMm_FmiawTZ-PfAxCvEYOPzc19CRjAZZeNT873lYG-eVlLe0ieC-g1ZvepHOjEqxuVFNlcV0cKNSxlGWQhKpcGMX9Q6pyiACC_JrCdwMsSUqcoLBwEkSjG9BorkD_muqe6MX3_RUwKTp3pKFLfDOXGDihKkpR8hYJL4_xZsFARdCxORhNO-H_lc-3awiaZmz5y7-LFgCgPX3tdgd7hsvFXZN9qrWNxLPuMAQn_0G00]--></g></svg>
